<svg version="1.2" xmlns="http://www.w3.org/2000/svg" viewBox="0 0 1507 426" width="1507" height="426"><style>.a{fill:#f2ebc4}.b{fill:#f0efe8}</style><path fill-rule="evenodd" class="a" d="m211.5 289.9q3.7 3.8 7.4 7.4c1.3 1.3 2.4 2.5 3.7 3.7 1.3 1.3 2.9 2.4 3.2 4.2-0.2 0.8-54 54.2-56 56.2-18.7 18.7-37.3 37.4-56 56.1-1.9 1.9-6 6.6-7.5 6.4-0.8-0.1-19.5-19.1-21-20.6l-84-83.8c1.2-0.4 2-1.7 2.8-2.6 1-1 1.7-1.7 2.7-2.7 1.9-1.9 3.6-3.5 5.4-5.4 6.8-6.7 73.4-73.9 75-74.7l0.6 0.4c0.1 0.1 0.2 0.1 0.3 0.2 0.2-0.1 0.4-0.1 0.4-0.1 0 0 0 0.1 0.3 0.2 1.1 0.6 16.6 16.6 17.5 17.5q8.9 9 17.9 17.9l35 35.1c0.1 0.1 0.5 0.4 0.6 0.5 0.3 0.2 0 0.1 0.5 0.3v0.6c-0.7 0.2-0.4 0.2-1 0.7l-0.4 0.4c-12.6 13-25.6 25.6-38.4 38.4l-11.7 11.7c-0.6 0.6-1.1 1-1.4 1.7h-0.6c-0.2-0.7-0.5-0.8-1.1-1.4l-3.8-3.9c-3.2-3.1-34.7-35.2-36-35.7v-0.5c1-0.4 0.1 0.1 0.8-0.6l19.2-19.2c0.4-0.4 0.2-0.1 0.5-0.7h0.5c0.8 2.1 19.2 18.4 19.9 20.5h1.2c0.3-1-0.1-0.1 0.5-0.9 1.2-1.3 9.3-9.6 10.3-9.9v-1.7c-1.4-0.5-14.8-14.5-15.5-15.3-4.8-4.8-9.9-9.5-14.5-14.5-0.5-0.5-0.5-0.3-0.7-1h-1.7c-0.4 1.1-1.9 2.1-2.7 3-1 1-1.8 1.8-2.8 2.7-3.3 3.4-37.6 38.2-38.9 38.7v0.6c0.6 0.2 0.9 0.6 1.2 1 0.5 0.4 0.7 0.6 1 1l60.8 60.7c0.1 0.2 0.4 0.4 0.4 0.5l0.9 1.1h1.1c0.3-0.7 0.5-0.9 1.1-1.4l72.5-72.5c1.4-1.4 2.7-3 4.3-4.2 0.4-0.4 0.1-0.2 0.7-0.4v-1.2c-1.4-0.5-5.4-5-6.3-6l-7.6-7.5-156.8-156.9q-3.8-3.7-7.4-7.4c-1.3-1.2-2.5-2.4-3.7-3.7-1.3-1.2-3-2.4-3.2-4.2 0.1-0.7 53.9-54.1 55.9-56.1 18.8-18.8 37.4-37.4 56.1-56.1 1.9-1.9 5.9-6.7 7.5-6.5 0.8 0.1 19.5 19.2 20.9 20.6l84.1 83.9c-1.2 0.3-2 1.7-2.8 2.5-1 1-1.8 1.8-2.7 2.7-1.9 1.9-3.6 3.6-5.5 5.4-6.7 6.8-73.3 74-74.9 74.7l-0.7-0.4c0-0.1-0.1 0-0.2-0.1-0.3 0-0.4 0.1-0.4 0.1 0 0 0-0.1-0.3-0.3-1.1-0.6-16.6-16.5-17.5-17.5q-9-8.9-17.9-17.9l-35-35c-0.2-0.1-0.5-0.4-0.6-0.5-0.3-0.3-0.1-0.2-0.6-0.4v-0.5c0.7-0.3 0.5-0.2 1-0.7 0 0 0.4-0.5 0.5-0.5 12.6-12.9 25.6-25.6 38.4-38.4l11.6-11.7c0.6-0.5 1.2-0.9 1.5-1.7h0.5c0.3 0.8 0.6 0.9 1.2 1.5l3.8 3.8c3.2 3.2 34.7 35.2 36 35.7v0.6c-1 0.4-0.1-0.1-0.9 0.6l-19.2 19.2c-0.3 0.4-0.2 0.1-0.4 0.7h-0.6c-0.7-2.1-19.1-18.4-19.9-20.5h-1.1c-0.4 1 0.1 0.1-0.6 0.9-1.1 1.3-9.3 9.6-10.2 9.9v1.7c1.3 0.5 14.7 14.5 15.5 15.2 4.8 4.9 9.9 9.6 14.5 14.5 0.5 0.6 0.5 0.4 0.7 1h1.7c0.4-1 1.8-2.1 2.7-2.9 1-1 1.8-1.8 2.7-2.7 3.4-3.4 37.7-38.3 39-38.8v-0.5c-0.7-0.3-0.9-0.6-1.3-1-0.4-0.4-0.6-0.7-1-1l-60.7-60.8c-0.2-0.1-0.4-0.4-0.5-0.4l-0.8-1.1h-1.1c-0.3 0.7-0.6 0.8-1.2 1.4l-72.4 72.4c-1.5 1.5-2.7 3-4.3 4.3-0.4 0.3-0.1 0.2-0.7 0.4v1.1c1.3 0.5 5.3 5.1 6.3 6zm-60.5-86.2c1-0.4 2.1-1.8 2.9-2.6l61.7-61.8c0.6-0.6 21-20.5 21.4-21.6h1.1c0.4 1-0.1 0.1 0.6 0.9l20.8 20.7c7.1 7.2 14.2 14.3 21.4 21.5 13.7 13.7 28.3 28 41.7 41.7 0.5 0.5 0.7 0.9 1.5 1.2v0.5c-0.9 0.3-0.6 0.2-1.6 1.3-13.4 13.7-28 28-41.6 41.6l-32.3 32.3c-0.7 0.7-10.1 9.7-10.5 10.8h-1.1c-0.3-0.9-0.2-0.6-1.3-1.6-0.5-0.5-0.8-0.8-1.3-1.3l-72.6-72.5c-0.7-0.8-9.7-10.2-10.8-10.6zm152.9 87.1l-7.5 7.6c-1 0.9-5 5.5-6.3 6v1.1c0.6 0.2 0.3 0.1 0.7 0.5 1.6 1.2 2.8 2.8 4.3 4.2l72.4 72.4c0.6 0.6 0.9 0.7 1.1 1.5h1.2l0.8-1.2c0 0 0.3-0.3 0.5-0.4l60.7-60.8c0.4-0.3 0.6-0.5 1-1 0.4-0.4 0.6-0.7 1.3-0.9v-0.6c-1.3-0.5-35.6-35.3-39-38.7-0.9-0.9-1.7-1.7-2.7-2.7-0.9-0.9-2.3-1.9-2.7-3h-1.7c-0.3 0.7-0.2 0.4-0.7 1-4.7 5-9.7 9.7-14.5 14.5-0.8 0.7-14.2 14.7-15.5 15.2v1.7c0.9 0.4 9 8.6 10.2 10 0.7 0.7 0.2-0.1 0.6 0.8h1.1c0.8-2.1 19.2-18.3 19.9-20.4h0.6c0.2 0.6 0.1 0.2 0.4 0.7l19.2 19.2c0.8 0.6-0.1 0.2 0.9 0.5v0.6c-1.3 0.5-32.9 32.6-36 35.7l-3.9 3.9c-0.6 0.5-0.8 0.7-1.1 1.4h-0.6c-0.2-0.7-0.8-1.1-1.4-1.7l-11.6-11.7c-12.8-12.8-25.8-25.5-38.5-38.4l-0.4-0.4c-0.5-0.6-0.3-0.5-1-0.7v-0.6c0.5-0.2 0.3-0.1 0.6-0.3 0.1-0.1 0.4-0.4 0.6-0.6l34.9-35q9-8.9 18-17.9c0.9-0.9 16.4-16.9 17.5-17.5q0.3-0.1 0.3-0.3c0 0.1 0.1 0.1 0.4 0.1 0.1 0 0.2 0 0.2-0.1l0.6-0.4c1.6 0.8 68.3 67.9 75 74.7 1.9 1.8 3.6 3.5 5.4 5.4 1 1 1.8 1.7 2.7 2.7 0.9 0.8 1.7 2.2 2.9 2.6l-84.1 83.8c-1.4 1.4-20.1 20.5-20.9 20.6-1.6 0.2-5.6-4.6-7.5-6.4-18.7-18.7-37.3-37.4-56.1-56.1-2-2-55.8-55.4-55.9-56.2 0.2-1.8 1.9-2.9 3.2-4.2 1.2-1.2 2.4-2.4 3.7-3.7q3.6-3.7 7.4-7.4l164.4-164.4c0.9-0.9 4.9-5.5 6.2-6v-1.1c-0.6-0.2-0.2-0.1-0.7-0.4-1.5-1.3-2.8-2.8-4.2-4.3l-72.5-72.4c-0.6-0.6-0.8-0.7-1.1-1.4h-1.1l-0.9 1.1c0 0-61.1 61.1-61.2 61.2-0.3 0.3-0.5 0.6-1 1-0.4 0.4-0.6 0.7-1.3 1v0.5c1.4 0.5 35.6 35.4 39 38.8 1 0.9 1.8 1.7 2.7 2.7 0.9 0.8 2.4 1.9 2.7 2.9h1.8c0.2-0.6 0.1-0.4 0.7-1 4.6-4.9 9.7-9.6 14.5-14.5 0.7-0.7 14.1-14.7 15.5-15.2v-1.7c-1-0.3-9.1-8.6-10.3-9.9-0.6-0.8-0.2 0.1-0.5-0.9h-1.2c-0.7 2.1-19.1 18.4-19.9 20.5h-0.5c-0.3-0.6-0.1-0.3-0.5-0.7l-19.2-19.2c-0.7-0.7 0.1-0.2-0.8-0.6v-0.6c1.3-0.5 32.8-32.5 36-35.7l3.8-3.8c0.6-0.6 0.9-0.7 1.1-1.5h0.6c0.3 0.8 0.9 1.2 1.4 1.7l11.7 11.7c12.8 12.8 25.8 25.5 38.4 38.4l0.4 0.5c0.6 0.5 0.4 0.4 1.1 0.7v0.5c-0.6 0.2-0.3 0.1-0.6 0.4-0.1 0.1-0.5 0.4-0.6 0.5-6 6-47 47-52.9 52.9-0.9 1-16.4 16.9-17.5 17.5-0.3 0.2-0.3 0.3-0.3 0.3 0 0-0.2-0.1-0.4-0.1-0.1 0.1-0.2 0-0.3 0.1l-0.6 0.4c-1.6-0.7-68.2-67.9-75-74.7-1.8-1.8-3.5-3.5-5.4-5.4-1-0.9-1.7-1.7-2.7-2.7-0.8-0.8-1.6-2.2-2.8-2.5l84-83.9c1.5-1.4 20.2-20.5 21-20.6 1.6-0.2 5.6 4.6 7.5 6.5 18.7 18.7 37.3 37.3 56.1 56 2 2.1 55.8 55.5 55.9 56.2-0.3 1.8-1.9 2.9-3.2 4.2-1.2 1.3-2.4 2.5-3.7 3.7-2.4 2.5-161.8 161.8-164.2 164.3v-0.1zm-158.6 133.5c25.6-25.4 80.1-79.8 93.3-93 30.2 31.3 61 62.1 91.6 93h-42.4l-50.1-50.7-50.9 50.7zm92.2-175.1c0.3-0.9 0.2-0.5 1.2-1.6l32.3-32.3q2.9-2.8 5.7-5.7l4.3-4.2c0.5-0.5 0.7-0.9 1.4-1.2v-0.5c-1-0.4-0.1 0-0.8-0.6-0.3-0.2-0.4-0.4-0.7-0.7l-37.5-37.4c-0.7-0.8-5-4.8-5.4-5.7h-1.1c-0.4 1.1-4.5 4.8-5.4 5.7-3.3 3.3-37.8 38.2-39 38.7v1.1c1.1 0.4 2.1 1.8 3 2.7 1 1 1.8 1.8 2.7 2.7 12.3 12.3 25.2 25.5 37.6 37.6 0.4 0.4 0.8 0.7 1.1 1.4zm-28.9 175.9l29-28.5 28.7 28.5zm37.3-192.4h-17v-24.3l-2.2-2.4c-0.1-0.1-1.3-1.6-1.5-1.7v-0.1c0.1 0 0.3-0.3 0.4-0.4 0.4-0.4 1.7-1.9 3.3-3.7v-23.6h17v23.9q1.6 1.8 3.2 3.6c0.1 0.1 0.1 0.2 0.2 0.2v0.1c-0.1 0.1-0.1 0-0.2 0.2-1 1.2-2.1 2.4-3.2 3.6z"/><path fill-rule="evenodd" class="b" d="m613.8 268.1l-39.4-36.4-54.7 54.5 119.2 110 121.7-118.4c-56.2-50.7-99.1-91.4-154.6-142.9l34.9-35 34.3 31.5-17.4 17.3 39 36.2 55.7-55.5-112-105-120.9 118.8c56.2 50.7 94.6 89.3 150.1 140.8l-34.1 33.4-36.6-34.7z"/><path fill-rule="evenodd" class="b" d="m1166.7 102l0.2 216.2 145.7-0.5-0.1-126.2-67.4 0.1 0.1 46.4 39 0.2 0.1 45.6h-83.5l0.1-144.5c55.5-0.1 107.6-0.1 163.1-0.1l0.6 234.9-256.6-1.3-0.9-324.2 257.3-0.1v53.5z"/><path fill-rule="evenodd" class="b" d="m827 372.8l89-178 87.4 178h74c-53.4-108.5-107.1-216.6-160-326.1-22.9 46.2-118.2 236.8-162.8 326.1z"/><path fill-rule="evenodd" class="b" d="m961.3 373.1l-49-94.6-49.5 94.6z"/></svg>